<svg width="512" height="512" viewBox="0 0 512 512" fill="none" xmlns="http://www.w3.org/2000/svg">
<g clip-path="url(#clip0_2_5)">
<path d="M18.92 351.2L127.42 304.68C140.2 299.149 155.19 302.879 163.87 313.66L207.96 367.48C277.21 333.48 333.46 277.17 367.46 207.98L313.65 163.94C302.9 155.159 299.24 140.25 304.676 127.47L351.186 18.97C357.28 5.05997 372.286 -2.55003 386.976 0.859969L487.776 24.11C502.026 27.36 511.996 39.91 511.996 54.57C511.996 306.87 306.796 512.07 54.496 512.07C39.826 512.07 27.316 502.102 24.046 487.85L0.795984 387.05C-2.57102 372.4 5.01798 357.2 18.92 351.2Z" fill="#0069AA"/>
</g>
<defs>
<clipPath id="clip0_2_5">
<rect width="512" height="512" fill="white"/>
</clipPath>
</defs>
</svg>
